<svg id="Layer_1" data-name="Layer 1" xmlns="http://www.w3.org/2000/svg" viewBox="0 0 13.6 12.7"><defs><style>.cls-1{fill:#fff;stroke:#fff;stroke-miterlimit:10;}</style></defs><title>linkedin</title><path class="cls-1" d="M2.3,1.09c.78,0,1.17.39,1.2.9a.82.82,0,0,1-.29.63,1.43,1.43,0,0,1-.91.28c-.78,0-1.2-.42-1.2-.92a.74.74,0,0,1,.3-.61A1.44,1.44,0,0,1,2.3,1.09ZM1.1,4.7H3.5v8.1H1.1Zm4.5,0H8v.79a.3.3,0,0,0,.3.3.29.29,0,0,0,.22-.1,3.43,3.43,0,0,1,2.42-1,2.56,2.56,0,0,1,1.94.81A3.57,3.57,0,0,1,13.7,8v4.8H11.3V8.15a.28.28,0,0,0,0-.13A1.64,1.64,0,0,0,8,8.15V12.8H5.6Z" transform="translate(-0.6 -0.59)"/></svg>